<svg width="171" height="47" viewBox="0 0 171 47" fill="none" xmlns="http://www.w3.org/2000/svg">
<path d="M33.4142 17.8203C33.4142 20.3672 33.1095 22.7031 32.5001 24.8281C31.9064 26.9375 30.9845 28.7656 29.7345 30.3125C28.4845 31.8594 26.8986 33.0703 24.9767 33.9453L33.2267 43.1562H23.922L17.6407 35.4688C17.5314 35.4688 17.4376 35.4688 17.3595 35.4688C17.2814 35.4688 17.1954 35.4688 17.1017 35.4688C14.3048 35.4688 11.8829 35.0547 9.83606 34.2266C7.78918 33.3828 6.09387 32.1797 4.75012 30.6172C3.422 29.0547 2.42981 27.1875 1.77356 25.0156C1.11731 22.8438 0.789185 20.4297 0.789185 17.7734C0.789185 14.2266 1.36731 11.1406 2.52356 8.51562C3.69543 5.875 5.49231 3.82812 7.91418 2.375C10.3361 0.921875 13.4142 0.195312 17.1486 0.195312C20.8673 0.195312 23.922 0.921875 26.3126 2.375C28.7189 3.82812 30.5001 5.875 31.6564 8.51562C32.8282 11.1562 33.4142 14.2578 33.4142 17.8203ZM8.40637 17.8203C8.40637 20.2109 8.70325 22.2734 9.297 24.0078C9.90637 25.7266 10.8517 27.0547 12.1329 27.9922C13.4142 28.9141 15.0704 29.375 17.1017 29.375C19.1642 29.375 20.8361 28.9141 22.1173 27.9922C23.3986 27.0547 24.3282 25.7266 24.9064 24.0078C25.5001 22.2734 25.797 20.2109 25.797 17.8203C25.797 14.2266 25.1251 11.3984 23.7814 9.33594C22.4376 7.27344 20.2267 6.24219 17.1486 6.24219C15.1017 6.24219 13.4298 6.71094 12.1329 7.64844C10.8517 8.57031 9.90637 9.89844 9.297 11.6328C8.70325 13.3516 8.40637 15.4141 8.40637 17.8203ZM83.0895 0.734375L74.3707 35H66.0973L61.4567 17C61.3629 16.6562 61.2379 16.1328 61.0817 15.4297C60.9254 14.7266 60.7614 13.9609 60.5895 13.1328C60.4176 12.2891 60.2614 11.5 60.1207 10.7656C59.9957 10.0156 59.9098 9.42188 59.8629 8.98438C59.8161 9.42188 59.7223 10.0078 59.5817 10.7422C59.4567 11.4766 59.3082 12.2578 59.1364 13.0859C58.9801 13.9141 58.8239 14.6875 58.6676 15.4062C58.5114 16.125 58.3864 16.6719 58.2926 17.0469L53.6754 35H45.4254L36.6832 0.734375H43.8317L48.2145 19.4375C48.3395 20 48.4801 20.6719 48.6364 21.4531C48.8082 22.2344 48.9723 23.0547 49.1286 23.9141C49.3004 24.7578 49.4489 25.5781 49.5739 26.375C49.7145 27.1562 49.8161 27.8359 49.8786 28.4141C49.9567 27.8203 50.0582 27.1328 50.1832 26.3516C50.3082 25.5547 50.4411 24.75 50.5817 23.9375C50.7379 23.1094 50.8942 22.3438 51.0504 21.6406C51.2067 20.9375 51.3473 20.3672 51.4723 19.9297L56.4645 0.734375H63.3317L68.3239 19.9297C68.4332 20.3516 68.5582 20.9219 68.6989 21.6406C68.8551 22.3438 69.0114 23.1094 69.1676 23.9375C69.3239 24.7656 69.4645 25.5781 69.5895 26.375C69.7301 27.1562 69.8317 27.8359 69.8942 28.4141C70.0036 27.6328 70.152 26.6875 70.3395 25.5781C70.5426 24.4531 70.7536 23.3359 70.9723 22.2266C71.2067 21.1172 71.4098 20.1875 71.5817 19.4375L75.9411 0.734375H83.0895ZM107.616 35H87.882V0.734375H107.616V6.6875H95.1476V14.2109H106.749V20.1641H95.1476V29H107.616V35ZM125.253 0.734375C128.362 0.734375 130.924 1.10938 132.94 1.85938C134.971 2.60938 136.479 3.74219 137.464 5.25781C138.448 6.77344 138.94 8.6875 138.94 11C138.94 12.5625 138.643 13.9297 138.049 15.1016C137.456 16.2734 136.674 17.2656 135.706 18.0781C134.737 18.8906 133.69 19.5547 132.565 20.0703L142.643 35H134.581L126.401 21.8516H122.534V35H115.268V0.734375H125.253ZM124.737 6.6875H122.534V15.9453H124.878C127.284 15.9453 129.003 15.5469 130.034 14.75C131.081 13.9375 131.604 12.75 131.604 11.1875C131.604 9.5625 131.042 8.40625 129.917 7.71875C128.807 7.03125 127.081 6.6875 124.737 6.6875ZM143.123 8.79688H150.951L155.897 23.5391C156.053 24.0078 156.186 24.4844 156.295 24.9688C156.404 25.4531 156.498 25.9531 156.576 26.4688C156.654 26.9844 156.717 27.5234 156.764 28.0859H156.904C156.998 27.2422 157.123 26.4531 157.279 25.7188C157.451 24.9844 157.662 24.2578 157.912 23.5391L162.764 8.79688H170.428L159.342 38.3516C158.67 40.1641 157.795 41.6719 156.717 42.875C155.639 44.0938 154.397 45.0078 152.99 45.6172C151.6 46.2266 150.069 46.5312 148.397 46.5312C147.584 46.5312 146.881 46.4844 146.287 46.3906C145.694 46.3125 145.186 46.2266 144.764 46.1328V40.4609C145.092 40.5391 145.506 40.6094 146.006 40.6719C146.506 40.7344 147.029 40.7656 147.576 40.7656C148.576 40.7656 149.436 40.5547 150.154 40.1328C150.873 39.7109 151.475 39.1406 151.959 38.4219C152.444 37.7188 152.826 36.9453 153.108 36.1016L153.529 34.8125L143.123 8.79688Z" fill="white"/>
</svg>
